<?xml version="1.0" encoding="UTF-8" standalone="no"?>
<!-- Created with Inkscape (http://www.inkscape.org/) -->

<svg
   width="50mm"
   height="50mm"
   viewBox="0 0 50 50"
   version="1.1"
   id="svg5"
   inkscape:version="1.2.2 (b0a8486541, 2022-12-01)"
   sodipodi:docname="beak-switch.svg"
   xmlns:inkscape="http://www.inkscape.org/namespaces/inkscape"
   xmlns:sodipodi="http://sodipodi.sourceforge.net/DTD/sodipodi-0.dtd"
   xmlns="http://www.w3.org/2000/svg"
   xmlns:svg="http://www.w3.org/2000/svg">
  <sodipodi:namedview
     id="namedview7"
     pagecolor="#ffffff"
     bordercolor="#666666"
     borderopacity="1.0"
     inkscape:showpageshadow="2"
     inkscape:pageopacity="0.0"
     inkscape:pagecheckerboard="0"
     inkscape:deskcolor="#d1d1d1"
     inkscape:document-units="mm"
     showgrid="false"
     inkscape:zoom="5.7320815"
     inkscape:cx="57.919623"
     inkscape:cy="84.698725"
     inkscape:window-width="1920"
     inkscape:window-height="1015"
     inkscape:window-x="0"
     inkscape:window-y="0"
     inkscape:window-maximized="1"
     inkscape:current-layer="layer1" />
  <defs
     id="defs2" />
  <g
     inkscape:label="Laag 1"
     inkscape:groupmode="layer"
     id="layer1">
    <path
       id="path1516-3"
       style="fill:none;stroke:#ffae50;stroke-width:14.3071;stroke-linecap:butt;stroke-linejoin:miter;stroke-dasharray:none;stroke-opacity:1"
       d="M 18.128092 20.878829 C 18.111216 20.878829 18.094376 20.880761 18.078483 20.883997 C 18.06259 20.887232 18.047596 20.891799 18.033008 20.897949 C 18.01842 20.904099 18.004628 20.911428 17.991667 20.92017 C 17.978706 20.928912 17.966506 20.93913 17.955493 20.950142 C 17.944481 20.961155 17.934263 20.973355 17.925521 20.986316 C 17.916779 20.999277 17.90945 21.013069 17.9033 21.027657 C 17.89715 21.042245 17.892583 21.057239 17.889347 21.073132 C 17.886112 21.089026 17.88418 21.105865 17.88418 21.122742 L 17.88418 26.40769 C 17.88418 26.424567 17.886112 26.44089 17.889347 26.456783 C 17.892583 26.472676 17.89715 26.488187 17.9033 26.502775 C 17.90945 26.517363 17.916779 26.531155 17.925521 26.544116 C 17.934263 26.557077 17.944481 26.569277 17.955493 26.58029 C 17.966506 26.591302 17.978706 26.601003 17.991667 26.609745 C 18.004628 26.618487 18.01842 26.625816 18.033008 26.631966 C 18.047596 26.638116 18.06259 26.6432 18.078483 26.646436 C 18.094376 26.649671 18.111216 26.651086 18.128092 26.651086 L 31.651298 26.651086 C 31.668175 26.651086 31.685014 26.649671 31.700907 26.646436 C 31.716801 26.6432 31.731795 26.638116 31.746383 26.631966 C 31.760971 26.625816 31.775279 26.618487 31.788241 26.609745 C 31.801202 26.601003 31.812885 26.591302 31.823897 26.58029 C 31.83491 26.569277 31.845128 26.557077 31.85387 26.544116 C 31.862612 26.531155 31.869941 26.517363 31.87609 26.502775 C 31.88224 26.488187 31.887324 26.472676 31.89056 26.456783 C 31.893796 26.44089 31.895211 26.424567 31.895211 26.40769 L 31.895211 21.122742 C 31.895211 21.105865 31.893796 21.089026 31.89056 21.073132 C 31.887324 21.057239 31.88224 21.042245 31.87609 21.027657 C 31.869941 21.013069 31.862612 20.999277 31.85387 20.986316 C 31.845128 20.973355 31.83491 20.961155 31.823897 20.950142 C 31.812885 20.93913 31.801202 20.928912 31.788241 20.92017 C 31.775279 20.911428 31.760971 20.904099 31.746383 20.897949 C 31.731795 20.891799 31.716801 20.887232 31.700907 20.883997 C 31.685014 20.880761 31.668175 20.878829 31.651298 20.878829 L 18.128092 20.878829 z " />
    <path
       id="path2463"
       style="fill:none;stroke:#ffae50;stroke-width:14.3071;stroke-linecap:butt;stroke-linejoin:miter;stroke-dasharray:none;stroke-opacity:1"
       d="m 24.74836,16.266191 c -2.024164,0.0013 -4.044864,0.298615 -5.952091,0.88315 -4.864196,1.41317 -8.9012504,5.530064 -9.7761477,10.5823 -0.092497,0.64613 0.3281236,1.23855 0.7766967,1.65778 2.417474,1.919467 5.647979,2.232242 8.609294,2.626713 5.706497,-0.117876 21.960509,1.420631 22.380029,-4.412651 -0.21582,-2.348997 -1.461722,-4.532388 -3.049426,-6.241996 C 34.356919,17.921281 29.542434,16.26307 24.74836,16.266191 Z"
       sodipodi:nodetypes="sccccccs" />
    <path
       style="fill:none;stroke:#ffffff;stroke-width:3.41783;stroke-linecap:butt;stroke-linejoin:miter;stroke-dasharray:none;stroke-opacity:1"
       d="M 6.3152931,28.239432 C 10.125146,8.7823242 40.348684,10.856177 43.633029,27.490298 c 0,0 1.693011,6.438042 -17.610823,6.375991 C 4.9288129,33.798487 6.3152931,28.239432 6.3152931,28.239432 Z"
       id="path1516"
       sodipodi:nodetypes="ccsc" />
    <path
       style="fill:none;stroke:#f9ffff;stroke-width:1.70891;stroke-linecap:round;stroke-linejoin:miter;stroke-dasharray:none;stroke-opacity:1"
       d="m 15.051223,26.338319 c 7.056412,4.292128 13.227868,4.650551 20.990795,-0.203676"
       id="path1518"
       sodipodi:nodetypes="cc" />
  </g>
</svg>
