<?xml version="1.0" encoding="UTF-8" standalone="no"?>
<!-- Uploaded to: SVG Repo, www.svgrepo.com, Generator: SVG Repo Mixer Tools -->

<svg
   fill="#000000"
   height="1306.667"
   width="1306.667"
   version="1.1"
   id="Capa_1"
   viewBox="0 0 355.24845 355.24846"
   xml:space="preserve"
   sodipodi:docname="bluetooth-svgrepo-com.svg"
   inkscape:version="1.2.2 (b0a8486541, 2022-12-01)"
   xmlns:inkscape="http://www.inkscape.org/namespaces/inkscape"
   xmlns:sodipodi="http://sodipodi.sourceforge.net/DTD/sodipodi-0.dtd"
   xmlns="http://www.w3.org/2000/svg"
   xmlns:svg="http://www.w3.org/2000/svg"><defs
   id="defs9" /><sodipodi:namedview
   id="namedview7"
   pagecolor="#ffffff"
   bordercolor="#666666"
   borderopacity="1.0"
   inkscape:showpageshadow="2"
   inkscape:pageopacity="0.0"
   inkscape:pagecheckerboard="0"
   inkscape:deskcolor="#d1d1d1"
   showgrid="false"
   inkscape:zoom="0.49837614"
   inkscape:cx="393.27725"
   inkscape:cy="651.11463"
   inkscape:window-width="1920"
   inkscape:window-height="1015"
   inkscape:window-x="0"
   inkscape:window-y="0"
   inkscape:window-maximized="1"
   inkscape:current-layer="g4" />
<g
   id="g4"
   style="fill:#000000;fill-opacity:1"
   transform="translate(-19.748289,172.63327)">
	
<path
   style="fill:#000000;stroke-width:0.362498"
   d="m 192.7908,182.83446 c -12.78563,-2.34145 -20.82292,-15.51953 -18.87881,-27.91705 L 173.57839,50.341701 C 142.14604,71.008431 111.26842,92.555067 79.328363,112.42149 61.713041,122.07598 39.801244,101.86008 46.963606,83.381298 51.046213,72.991642 121.4392,27.957303 154.54723,5.6374805 120.85184,-17.356722 86.101211,-38.838734 52.973608,-62.63773 c -14.967375,-12.765534 -4.683619,-40.25038 14.907041,-40.57177 15.236111,-0.25996 25.946003,13.04273 38.619661,19.691291 22.37715,14.863229 44.71889,29.779698 67.07808,44.669929 0.32347,-38.266013 -0.15955,-76.6733 0.66775,-114.85106 3.85447,-16.3704 25.11301,-23.45939 38.34981,-13.2687 31.82302,17.12675 63.97915,33.72979 95.35178,51.63502 24.24612,16.826256 25.66553,56.601103 1.86686,74.509764 -22.62783,16.050247 -46.13041,30.8310802 -68.97514,46.569961 23.75477,16.820265 49.25383,31.305358 72.11407,49.299775 22.05237,20.111188 17.23026,59.98699 -8.92928,74.35669 -32.28231,17.5139 -64.65763,34.86096 -97.13657,52.00731 -4.41712,1.8486 -9.39936,2.35865 -14.09687,1.42398 z m 86.45584,-94.424549 c -19.03779,-13.141242 -38.4731,-25.717597 -57.79659,-38.438408 -0.31197,23.196698 -0.28208,46.40237 -0.0263,69.599687 19.32592,-10.45396 40.58282,-21.268155 57.82289,-31.161279 z m 0.41426,-165.951993 c -19.37369,-10.127247 -38.56876,-20.59849 -58.04069,-30.535688 -0.69494,23.084622 -0.24759,46.19872 -0.37329,69.296309 20.53754,-13.432173 37.56467,-24.870259 58.41398,-38.760621 z"
   id="path3083"
   sodipodi:nodetypes="ccccccccccccccccccccccccccc" /></g>
</svg>
