<?xml version="1.0" encoding="UTF-8" standalone="no"?>
<!-- Uploaded to: SVG Repo, www.svgrepo.com, Generator: SVG Repo Mixer Tools -->

<svg
   fill="#000000"
   height="1306.667"
   width="1306.667"
   version="1.1"
   id="Capa_1"
   viewBox="0 0 355.24845 355.24846"
   xml:space="preserve"
   sodipodi:docname="bluetooth-svgrepo-com.svg"
   inkscape:version="1.2.2 (b0a8486541, 2022-12-01)"
   xmlns:inkscape="http://www.inkscape.org/namespaces/inkscape"
   xmlns:sodipodi="http://sodipodi.sourceforge.net/DTD/sodipodi-0.dtd"
   xmlns="http://www.w3.org/2000/svg"
   xmlns:svg="http://www.w3.org/2000/svg"><defs
   id="defs9" /><sodipodi:namedview
   id="namedview7"
   pagecolor="#ffffff"
   bordercolor="#666666"
   borderopacity="1.0"
   inkscape:showpageshadow="2"
   inkscape:pageopacity="0.0"
   inkscape:pagecheckerboard="0"
   inkscape:deskcolor="#d1d1d1"
   showgrid="false"
   inkscape:zoom="0.39743519"
   inkscape:cx="767.42073"
   inkscape:cy="660.48505"
   inkscape:window-width="1920"
   inkscape:window-height="1015"
   inkscape:window-x="0"
   inkscape:window-y="0"
   inkscape:window-maximized="1"
   inkscape:current-layer="g4" />
<g
   id="g4"
   style="fill:#000000;fill-opacity:1"
   transform="translate(-19.748289,172.63327)">
	
<path
   style="fill:#000000;stroke-width:0.362498"
   d="m 192.7908,182.83446 c -8.4741,-1.86551 -15.08908,-7.76623 -17.85692,-15.92881 l -0.99299,-2.92841 -0.18125,-56.81777 -0.18125,-56.817769 -46.39978,30.917415 C 77.293676,114.49868 78.5697,113.7205 72.555763,114.57098 c -2.119027,0.29967 -3.602593,0.28998 -5.953431,-0.0389 -9.295039,-1.30031 -16.387786,-7.09218 -19.649696,-16.045765 -0.87383,-2.39855 -0.96756,-3.137761 -0.95766,-7.552508 0.01,-4.361167 0.1152,-5.183071 0.96863,-7.552509 0.52671,-1.462332 1.49936,-3.55431 2.16144,-4.648845 2.906778,-4.80543 1.607505,-3.874734 55.077534,-39.453171 27.68961,-18.424317 50.34465,-33.5631321 50.34465,-33.6418015 0,-0.078669 -22.3888,-14.9691661 -49.75301,-33.0899905 -55.250254,-36.587357 -53.44776,-35.272982 -56.380984,-41.112946 -6.54897,-13.038797 -0.27802,-28.636345 13.420172,-33.379584 5.351749,-1.85314 10.760621,-1.7619 16.272598,0.2745 2.142915,0.79171 11.8697,7.115649 49.072604,31.904841 l 46.39978,30.917419 0.18125,-56.999021 0.18125,-56.999019 0.84316,-2.35624 c 1.9903,-5.56191 5.13907,-9.64339 9.8033,-12.70717 6.70835,-4.40649 15.49966,-5.11283 22.67114,-1.82153 4.0884,1.87634 96.79632,51.70032 99.06145,53.23855 8.80676,5.9806 15.64725,15.28243 18.74374,25.488102 1.58897,5.237068 2.13098,9.648187 1.91089,15.551683 -0.30065,8.064262 -2.19878,14.796606 -6.08132,21.569304 -2.52839,4.410532 -4.56665,7.03526 -8.30379,10.693049 -2.77072,2.71189 -7.25946,5.818729 -37.447,25.918632 -18.86441,12.5605674 -34.30077,22.9189579 -34.30301,23.018645 -0.002,0.099687 15.3631,10.376515 34.14522,22.837396 33.29302,22.088043 34.24509,22.751589 37.96885,26.462379 9.25315,9.220921 14.13697,20.872898 14.14144,33.739092 0.006,16.567258 -8.92435,32.289328 -23.07072,40.617598 -3.98768,2.34763 -94.85426,50.99796 -97.13657,52.00731 -4.08976,1.80868 -9.75143,2.38059 -14.09687,1.42398 z m 43.40476,-71.09521 c 8.02723,-4.30757 17.04183,-9.1427 20.03244,-10.74473 2.99061,-1.602037 7.31341,-3.925901 9.60621,-5.164148 2.2928,-1.238248 6.24856,-3.348205 8.79058,-4.688793 2.54202,-1.340584 4.62185,-2.569838 4.62185,-2.731668 0,-0.16183 -4.44513,-3.227515 -9.87807,-6.812631 -5.43295,-3.585116 -18.39148,-12.167554 -28.79673,-19.072086 -10.40526,-6.904531 -19.01007,-12.553691 -19.12179,-12.553691 -0.11172,0 -0.20313,15.659929 -0.20313,34.799842 0,19.139915 0.0796,34.799845 0.17683,34.799845 0.0973,0 6.74458,-3.52437 14.77181,-7.83194 z m 15.61772,-170.728508 27.84762,-18.552824 -5.01023,-2.634914 c -2.75563,-1.449203 -15.73079,-8.319732 -28.8337,-15.267845 -13.1029,-6.948109 -23.99144,-12.632929 -24.19676,-12.632929 -0.25346,0 -0.37329,11.122809 -0.37329,34.648152 v 34.648157 l 1.35936,-0.827486 c 0.74766,-0.45512 13.89081,-9.176258 29.207,-19.380311 z"
   id="path3083" /></g>
</svg>
