<?xml version="1.0" encoding="UTF-8" standalone="no"?>
<svg
   id="svg1"
   sodipodi:docname="mono-gnome-question.svg"
   viewBox="0 0 60 60"
   sodipodi:version="0.32"
   _SVGFile__filename="oldscale/apps/gnome_question.svg"
   version="1.0"
   y="0"
   x="0"
   inkscape:version="1.2.2 (b0a8486541, 2022-12-01)"
   xmlns:inkscape="http://www.inkscape.org/namespaces/inkscape"
   xmlns:sodipodi="http://sodipodi.sourceforge.net/DTD/sodipodi-0.dtd"
   xmlns="http://www.w3.org/2000/svg"
   xmlns:svg="http://www.w3.org/2000/svg"
   xmlns:rdf="http://www.w3.org/1999/02/22-rdf-syntax-ns#"
   xmlns:cc="http://creativecommons.org/ns#"
   xmlns:dc="http://purl.org/dc/elements/1.1/">
  <defs
     id="defs9" />
  <sodipodi:namedview
     id="base"
     bordercolor="#666666"
     inkscape:pageshadow="2"
     inkscape:window-y="0"
     pagecolor="#ffffff"
     inkscape:window-height="1015"
     inkscape:zoom="9.5269865"
     inkscape:window-x="0"
     borderopacity="1.0"
     inkscape:current-layer="svg1"
     inkscape:cx="50.173263"
     inkscape:cy="37.839877"
     inkscape:window-width="1920"
     inkscape:pageopacity="0.0"
     inkscape:showpageshadow="2"
     inkscape:pagecheckerboard="0"
     inkscape:deskcolor="#d1d1d1"
     showgrid="false"
     inkscape:window-maximized="1" />
  <path
     id="path839"
     sodipodi:nodetypes="ssccs"
     style="fill:none;fill-rule:evenodd;stroke:#000000;stroke-width:3.125"
     d="m 30,4.6871 c -13.97,0 -25.31305,11.343 -25.313,25.313 5e-5,13.97 11.343,25.313 25.313,25.313 C 45.012232,55.039111 55.154903,44.036232 55.313,30.0001 55.313,16.0301 43.97,4.6871 30,4.6871 Z" />
  <path
     id="path1710"
     sodipodi:nodetypes="ccccccccccccccccccccccccccccccccccccccccccc"
     style="fill:#000000;fill-rule:evenodd;stroke:#000000;stroke-width:1.25;stroke-linejoin:round"
     d="m 29.515,10.465 c 4.52878,-0.08593 9.395276,2.142915 11.279,6.458 1.322499,3.03003 1.24733,6.649146 -0.03356,9.680867 C 39.398856,29.550943 36.29516,31.274292 33.214,31.87 c 0.129531,1.664934 -0.277928,3.5839 -1.91,4.396 -2.070962,1.203561 -5.227622,0.151562 -5.69975,-2.32825 -0.233333,-1.774482 -0.08245,-3.58019 -0.11523,-5.368738 -0.123316,-1.65959 1.441001,-2.668009 2.916843,-2.806731 1.818308,-0.271048 4.10537,-0.858452 4.615327,-2.913583 C 33.763378,20.674804 31.73525,18.358715 29.515,18.53 c -2.11569,-0.236104 -3.521224,1.511763 -4.645738,3.017836 -1.324488,1.907313 -4.473469,1.992327 -5.815242,0.05835 -1.530647,-2.132095 -0.657256,-5.172258 0.94098,-7.018184 2.337654,-2.707776 5.996493,-4.081813 9.52,-4.123 z m -0.243,30.369 c 3.056843,-0.0722 5.309984,3.646729 3.810457,6.322145 -1.083403,2.340734 -4.402112,3.153772 -6.405457,1.491261 -2.385531,-1.617592 -2.210285,-5.566413 0.230945,-7.050664 C 27.596218,41.113166 28.427359,40.826891 29.272,40.834 Z" />
  <metadata
     id="metadata6">
    <rdf:RDF>
      <cc:Work>
        <dc:format>image/svg+xml</dc:format>
        <dc:type
           rdf:resource="http://purl.org/dc/dcmitype/StillImage" />
        <cc:license
           rdf:resource="http://creativecommons.org/licenses/publicdomain/" />
        <dc:publisher>
          <cc:Agent
             rdf:about="http://openclipart.org/">
            <dc:title>Openclipart</dc:title>
          </cc:Agent>
        </dc:publisher>
      </cc:Work>
      <cc:License
         rdf:about="http://creativecommons.org/licenses/publicdomain/">
        <cc:permits
           rdf:resource="http://creativecommons.org/ns#Reproduction" />
        <cc:permits
           rdf:resource="http://creativecommons.org/ns#Distribution" />
        <cc:permits
           rdf:resource="http://creativecommons.org/ns#DerivativeWorks" />
      </cc:License>
    </rdf:RDF>
  </metadata>
  <path
     style="fill:#000000;fill-opacity:1;stroke-width:2.63676;stroke-linecap:round;stroke-linejoin:round"
     id="path2503"
     sodipodi:type="arc"
     sodipodi:cx="7.0450211"
     sodipodi:cy="53.778004"
     sodipodi:rx="3.6788232"
     sodipodi:ry="3.7057889"
     sodipodi:start="0.011431121"
     sodipodi:end="0.0056757933"
     sodipodi:arc-type="slice"
     d="M 10.723604,53.820364 A 3.6788232,3.7057889 0 0 1 7.0082618,57.483608 3.6788232,3.7057889 0 0 1 3.3663324,53.746307 3.6788232,3.7057889 0 0 1 7.0711943,50.072309 3.6788232,3.7057889 0 0 1 10.723785,53.799037 L 7.0450211,53.778004 Z" />
</svg>
