<?xml version="1.0" encoding="UTF-8" standalone="no"?>
<!-- Generator: Adobe Illustrator 15.0.0, SVG Export Plug-In  -->

<svg
   version="1.1"
   x="0px"
   y="0px"
   width="144.28999"
   height="144.28999"
   viewBox="-72 -23.758 144.29 144.28999"
   overflow="visible"
   enable-background="new -72 -23.758 504 252"
   xml:space="preserve"
   id="svg14"
   sodipodi:docname="opus-logo-black.svg"
   inkscape:version="1.2.2 (b0a8486541, 2022-12-01)"
   xmlns:inkscape="http://www.inkscape.org/namespaces/inkscape"
   xmlns:sodipodi="http://sodipodi.sourceforge.net/DTD/sodipodi-0.dtd"
   xmlns="http://www.w3.org/2000/svg"
   xmlns:svg="http://www.w3.org/2000/svg"><sodipodi:namedview
   id="namedview16"
   pagecolor="#ffffff"
   bordercolor="#666666"
   borderopacity="1.0"
   inkscape:showpageshadow="2"
   inkscape:pageopacity="0.0"
   inkscape:pagecheckerboard="0"
   inkscape:deskcolor="#d1d1d1"
   showgrid="false"
   inkscape:zoom="5.9220729"
   inkscape:cx="48.125041"
   inkscape:cy="75.395897"
   inkscape:window-width="1920"
   inkscape:window-height="1015"
   inkscape:window-x="0"
   inkscape:window-y="0"
   inkscape:window-maximized="1"
   inkscape:current-layer="svg14" />
<defs
   id="defs2">
</defs>
<path
   d="M 62.967682,14.236237 C 53.311665,6.4411518 40.784802,3.5789679 28.765682,1.828237 24.400169,15.666898 20.066759,29.540325 15.705901,43.360639 12.52011,52.002445 3.3253341,56.965798 -5.6281772,56.461706 -11.149828,56.324527 -19.020095,55.619138 -20.65663,49.183253 c -0.953878,-7.384779 3.218465,-15.114338 9.209156,-19.318282 7.0463329,-4.313109 16.0866255,-4.126712 23.767781,-1.774984 2.309856,1.209857 1.972078,-3.716777 3.050719,-5.360539 2.270219,-7.21907 4.540437,-14.4381407 6.810656,-21.657211 -24.1920007,-2.1328147 -50.179047,-0.78383775 -71.507471,12.022217 -13.951059,8.198928 -24.391988,23.994615 -22.551553,40.579844 0.975999,18.597471 14.688121,34.521613 31.338024,41.673939 1.936393,-5.902825 3.518416,-11.927672 5.767,-17.723 22.630861,3.728696 46.45694,4.191936 68.525119,-2.819981 16.056499,-5.111654 31.701246,-15.916203 36.91499,-32.66535 3.43042,-9.022392 1.420962,-19.977016 -6.021597,-26.410432 l -0.818446,-0.753178 z"
   id="path4" />




</svg>
