<?xml version="1.0" encoding="UTF-8" standalone="no"?>
<!-- Generator: Adobe Illustrator 15.0.0, SVG Export Plug-In  -->

<svg
   version="1.1"
   x="0px"
   y="0px"
   width="144.28999"
   height="144.28999"
   viewBox="-72 -23.758 144.29 144.28999"
   overflow="visible"
   enable-background="new -72 -23.758 504 252"
   xml:space="preserve"
   id="svg14"
   sodipodi:docname="opus_logo_black.svg"
   inkscape:version="1.2.2 (b0a8486541, 2022-12-01)"
   xmlns:inkscape="http://www.inkscape.org/namespaces/inkscape"
   xmlns:sodipodi="http://sodipodi.sourceforge.net/DTD/sodipodi-0.dtd"
   xmlns="http://www.w3.org/2000/svg"
   xmlns:svg="http://www.w3.org/2000/svg"><sodipodi:namedview
   id="namedview16"
   pagecolor="#ffffff"
   bordercolor="#666666"
   borderopacity="1.0"
   inkscape:showpageshadow="2"
   inkscape:pageopacity="0.0"
   inkscape:pagecheckerboard="0"
   inkscape:deskcolor="#d1d1d1"
   showgrid="false"
   inkscape:zoom="2.9497448"
   inkscape:cx="2.712099"
   inkscape:cy="80.515439"
   inkscape:window-width="1920"
   inkscape:window-height="1015"
   inkscape:window-x="0"
   inkscape:window-y="0"
   inkscape:window-maximized="1"
   inkscape:current-layer="svg14" />
<defs
   id="defs2">
</defs>
<path
   d="m 62.967682,14.236237 c -7.412,-6.17 -18.823,-10.301 -34.202,-12.408 l -11.302,35.934 c -0.244,1.32 -0.664,2.816 -1.314,4.541 -1.154,2.883 -2.543,5.26 -4.175,7.129 -1.635,1.873 -3.4639998,3.334 -5.4899998,4.398 -2.027,1.061 -4.231,1.791 -6.61399997,2.193 -2.38300003,0.4 -4.84700003,0.527 -7.39300003,0.379 -2.5490002,-0.148 -4.7160002,-0.496 -6.5010002,-1.043 -1.785,-0.545 -3.428,-1.451 -4.925,-2.719 -1.108,-1.246 -1.752,-2.877 -1.928,-4.902 -0.176,-2.025 0.314,-4.527 1.471,-7.51 1.035,-2.59 2.346,-4.85 3.934,-6.771 1.587,-1.92 3.443,-3.41 5.5660002,-4.465 2.027,-1.061 4.207,-1.768 6.539,-2.127 2.326,-0.354 4.914,-0.447 7.754,-0.281 2.353,0.137 4.543,0.484 6.5749998,1.047 0.964,0.266 1.809,0.613 2.542,1.033 l 8.677,-27.592 c -2.141,-0.201 -4.333,-0.379 -6.609,-0.508 -21.9019998,-1.279 -40.309,1.25 -55.228,7.576 -14.919,6.33 -24.866,15.715 -29.834,28.154 -1.491,3.812 -2.293,7.406 -2.41,10.783 l -0.01,-0.004 c -1.426,24.463 14.295,38.244 24.007,44.373 3.897,2.609 7.363,3.902 7.363,3.902 l 4.451,-14.227 1.316,-3.496 c 5.859,1.109 12.375,1.881 19.573,2.299 22.0530002,1.285 40.538,-1.232 55.458,-7.564 14.916,-6.326 24.78,-15.637 29.591,-27.941 4.807,-12.296 2.514,-22.359 -6.882,-30.183 z"
   id="path4" />




</svg>
