<?xml version="1.0" encoding="UTF-8" standalone="no"?>
<svg
   height="24px"
   viewBox="0 0 24 24"
   width="24px"
   fill="#000000"
   version="1.1"
   id="svg6"
   sodipodi:docname="peacock-feather-icon.svg"
   inkscape:version="1.2.2 (b0a8486541, 2022-12-01)"
   xmlns:inkscape="http://www.inkscape.org/namespaces/inkscape"
   xmlns:sodipodi="http://sodipodi.sourceforge.net/DTD/sodipodi-0.dtd"
   xmlns="http://www.w3.org/2000/svg"
   xmlns:svg="http://www.w3.org/2000/svg">
  <defs
     id="defs10" />
  <sodipodi:namedview
     id="namedview8"
     pagecolor="#ffffff"
     bordercolor="#666666"
     borderopacity="1.0"
     inkscape:showpageshadow="2"
     inkscape:pageopacity="0.0"
     inkscape:pagecheckerboard="0"
     inkscape:deskcolor="#d1d1d1"
     showgrid="false"
     inkscape:zoom="22.662646"
     inkscape:cx="10.590114"
     inkscape:cy="13.21558"
     inkscape:window-width="1920"
     inkscape:window-height="1015"
     inkscape:window-x="0"
     inkscape:window-y="0"
     inkscape:window-maximized="1"
     inkscape:current-layer="svg6" />
  <path
     d="M0 0h24v24H0z"
     fill="none"
     id="path2" />
  <path
     id="path4"
     d="M 11.91873,0.74301982 C 9.3671219,0.65400575 5.0155559,5.1300391 5,9 c -0.020965,5.215677 5.703123,6.219323 5.556641,11.267578 v 2.394531 c 0,0.668124 0.536954,1.207032 1.205078,1.207032 h 0.445312 c 0.668124,0 1.207031,-0.538908 1.207031,-1.207032 V 20.304688 C 13.369059,15.326745 18.992832,13.833375 19,9 19.005739,5.1300121 14.368654,0.82848657 11.91873,0.74301982 Z m 0.03043,1.81729248 c 1.853017,0.075853 3.149714,1.8836455 4.28486,3.4634309 1.197038,1.7149372 1.217387,4.4664638 -0.799871,6.2996508 -2.126952,1.908149 -4.498248,1.874081 -6.4910098,0.279903 C 6.9411072,10.906086 6.6881441,7.7371553 7.9034689,5.9857794 8.6522236,4.9064046 10.082187,2.5034689 11.949157,2.5603123 Z"
     sodipodi:nodetypes="sscsssscssccccccc" />
  <path
     id="path503"
     style="fill:#000000;stroke-width:26.3611;stroke-linecap:round;stroke-linejoin:round;paint-order:fill markers stroke"
     d="m 11.998047,3.8222656 c -1.873901,3e-7 -3.1681775,2.2142707 -3.3437501,4.4121094 -0.1698786,2.12656 1.5186761,3.863281 3.3925781,3.863281 1.873902,0 3.553093,-1.735847 3.394531,-3.863281 C 15.282404,6.1010407 13.871949,3.8222654 11.998047,3.8222656 Z m 0.04492,0.9414063 c 1.227846,10e-8 2.397751,1.8553019 2.397751,3.4610801 0,3.005984 -0.966335,0.765337 -2.446579,0.7947792 C 10.467308,9.0499012 9.5959773,11.236739 9.6413158,8.2128906 9.6668877,6.5073748 11.008866,4.7636718 12.042969,4.7636719 Z"
     sodipodi:nodetypes="ssssssssss" />
  <path
     style="color:#000000;fill:#000000;stroke-linecap:round;-inkscape-stroke:none"
     d="M 18.505859,13.251953 A 0.64999998,0.64999998 0 0 0 17.875,13.919922 c 0.04659,1.710702 -1.344679,3.472818 -2.857422,4.783203 -1.512743,1.310385 -3.044922,2.134766 -3.044922,2.134766 a 0.64999998,0.64999998 0 0 0 -0.265625,0.878906 0.64999998,0.64999998 0 0 0 0.88086,0.267578 c 0,0 1.643802,-0.880421 3.28125,-2.298828 1.637447,-1.418408 3.369813,-3.409554 3.304687,-5.800781 a 0.64999998,0.64999998 0 0 0 -0.667969,-0.632813 z"
     id="path439" />
  <path
     style="color:#000000;fill:#000000;stroke-linecap:round;-inkscape-stroke:none"
     d="m 5.5664062,13.251953 a 0.64999998,0.64999998 0 0 0 -0.6679687,0.632813 c -0.065126,2.391227 1.6672403,4.382373 3.3046875,5.800781 1.6374472,1.418407 3.283203,2.298828 3.283203,2.298828 a 0.64999998,0.64999998 0 0 0 0.878906,-0.265625 0.64999998,0.64999998 0 0 0 -0.265625,-0.880859 c 0,0 -1.532178,-0.824381 -3.0449215,-2.134766 C 7.5419442,17.39274 6.1506739,15.630624 6.1972656,13.919922 A 0.64999998,0.64999998 0 0 0 5.5664062,13.251953 Z"
     id="path439-3" />
</svg>
