<?xml version="1.0" encoding="UTF-8" standalone="no"?>
<!-- License: CC Attribution. Made by Ayub Irawan: https://dribbble.com/JumpWhale -->

<svg
   width="700"
   height="700"
   viewBox="0 0 28 28"
   enable-background="new 0 0 32 32"
   id="Editable-line"
   version="1.1"
   xml:space="preserve"
   sodipodi:docname="settings.svg"
   inkscape:version="1.2.2 (b0a8486541, 2022-12-01)"
   xmlns:inkscape="http://www.inkscape.org/namespaces/inkscape"
   xmlns:sodipodi="http://sodipodi.sourceforge.net/DTD/sodipodi-0.dtd"
   xmlns="http://www.w3.org/2000/svg"
   xmlns:svg="http://www.w3.org/2000/svg"><defs
     id="defs7" /><sodipodi:namedview
     id="namedview5"
     pagecolor="#ffffff"
     bordercolor="#666666"
     borderopacity="1.0"
     inkscape:showpageshadow="2"
     inkscape:pageopacity="0.0"
     inkscape:pagecheckerboard="0"
     inkscape:deskcolor="#d1d1d1"
     showgrid="false"
     inkscape:zoom="1.035"
     inkscape:cx="265.70048"
     inkscape:cy="433.33333"
     inkscape:window-width="1920"
     inkscape:window-height="1015"
     inkscape:window-x="0"
     inkscape:window-y="0"
     inkscape:window-maximized="1"
     inkscape:current-layer="Editable-line" /><circle
     cx="13.981441"
     cy="14"
     fill="none"
     id="XMLID_224_"
     r="4"
     stroke="#000000"
     stroke-linecap="round"
     stroke-linejoin="round"
     stroke-miterlimit="10"
     stroke-width="2" /><path
     d="m 25.739441,8.366 -1,-1.732 c -0.552,-0.957 -1.775,-1.284 -2.732,-0.732 l -0.526,0.304 c -2,1.154 -4.5,-0.289 -4.5,-2.598 V 3 c 0,-1.105 -0.895,-2 -2,-2 h -2 c -1.105,0 -2,0.895 -2,2 v 0.608 c 0,2.309 -2.5000004,3.753 -4.5000004,2.598 l -0.526,-0.304 c -0.957,-0.552 -2.18,-0.225 -2.732,0.732 l -1,1.732 c -0.552,0.957 -0.225,2.18 0.732,2.732 l 0.526,0.304 c 2,1.155 2,4.041 0,5.196 l -0.526,0.304 c -0.957,0.552 -1.284,1.775 -0.732,2.732 l 1,1.732 c 0.552,0.957 1.775,1.284 2.732,0.732 l 0.526,-0.304 c 2,-1.155 4.5000004,0.289 4.5000004,2.598 V 25 c 0,1.105 0.895,2 2,2 h 2 c 1.105,0 2,-0.895 2,-2 v -0.608 c 0,-2.309 2.5,-3.753 4.5,-2.598 l 0.526,0.304 c 0.957,0.552 2.18,0.225 2.732,-0.732 l 1,-1.732 c 0.552,-0.957 0.225,-2.18 -0.732,-2.732 l -0.526,-0.304 c -2,-1.155 -2,-4.041 0,-5.196 l 0.526,-0.304 c 0.957,-0.552 1.285,-1.775 0.732,-2.732 z"
     fill="none"
     id="XMLID_242_"
     stroke="#000000"
     stroke-linecap="round"
     stroke-linejoin="round"
     stroke-miterlimit="10"
     stroke-width="2" /></svg>
